<?xml version="1.0" standalone="no"?>
<!DOCTYPE svg PUBLIC "-//W3C//DTD SVG 20010904//EN"
 "http://www.w3.org/TR/2001/REC-SVG-20010904/DTD/svg10.dtd">
<svg version="1.0" xmlns="http://www.w3.org/2000/svg"
 width="512.000000pt" height="512.000000pt" viewBox="0 0 512.000000 512.000000"
 preserveAspectRatio="xMidYMid meet">

<g transform="translate(0.000000,512.000000) scale(0.100000,-0.100000)"
fill="#ffffff" stroke="none">
<path d="M1960 5109 c-445 -49 -883 -241 -1205 -527 -407 -361 -650 -803 -732
-1332 -24 -158 -24 -472 0 -629 75 -476 283 -886 623 -1227 186 -185 364 -312
599 -425 302 -145 593 -211 935 -211 511 1 973 161 1365 476 l70 56 640 -639
c572 -572 644 -640 678 -647 110 -20 205 78 182 188 -6 27 -128 154 -646 673
l-639 640 56 70 c315 392 475 854 476 1365 1 350 -72 660 -227 970 -110 220
-231 386 -415 570 -331 331 -723 533 -1185 611 -140 23 -443 33 -575 18z m472
-315 c753 -104 1364 -642 1562 -1376 44 -164 59 -287 59 -483 -1 -363 -87
-675 -271 -975 -476 -777 -1450 -1103 -2289 -766 -134 54 -173 73 -288 144
-132 81 -232 160 -345 272 -358 359 -550 822 -550 1328 0 355 93 681 281 989
138 225 377 464 602 602 219 134 484 231 712 261 50 6 97 13 105 15 50 10 325
3 422 -11z"/>
</g>
</svg>
